<svg xmlns="http://www.w3.org/2000/svg" version="1.0" width="170.000000pt" height="50.000000pt" viewBox="0 0 170.000000 50.000000" preserveAspectRatio="xMidYMid meet">

<g transform="translate(0.000000,50.000000) scale(0.100000,-0.100000)" fill="#ffffff" stroke="none">
<path d="M185 388 c-15 -21 -143 -238 -167 -282 -10 -19 -7 -19 143 -13 85 3 178 11 208 17 45 8 57 7 71 -5 11 -10 37 -15 79 -15 56 0 62 2 56 18 -18 43 -16 47 42 72 99 42 168 124 161 190 l-3 28 -70 -59 c-84 -72 -184 -124 -202 -106 -7 7 -34 48 -61 92 l-48 80 -96 3 c-91 3 -98 1 -113 -20z m153 -113 c23 -41 42 -79 42 -84 0 -9 -81 -21 -148 -21 l-42 0 45 90 c25 50 49 90 53 90 5 0 27 -34 50 -75z" fill="#ffffff"/>
<path d="M1360 401 c-57 -19 -133 -65 -235 -142 -122 -93 -155 -108 -236 -109 -72 0 -98 19 -106 77 l-6 42 -26 -27 c-14 -15 -42 -39 -61 -54 l-35 -27 25 -21 c46 -37 122 -52 239 -48 129 4 168 20 273 115 146 131 206 157 343 152 47 -2 85 -3 85 -2 0 2 -19 12 -42 24 -47 24 -172 35 -218 20z" fill="#ffffff"/>
<path d="M1364 309 c-23 -9 -45 -22 -49 -28 -8 -15 42 -35 122 -51 35 -7 71 -18 80 -26 17 -12 17 -14 0 -31 -14 -14 -34 -18 -95 -18 -42 0 -93 3 -113 8 -32 7 -37 5 -48 -19 -10 -22 -9 -29 1 -35 24 -15 120 -22 224 -16 150 7 227 50 203 114 -11 30 -52 49 -156 73 -48 12 -97 27 -108 34 -17 11 -27 10 -61 -5z" fill="#ffffff"/>
</g>
</svg>