<svg xmlns="http://www.w3.org/2000/svg" xmlns:xlink="http://www.w3.org/1999/xlink" viewBox="0 0 209.97 55.45"><defs><style>.cls-1,.cls-4{fill:none;}.cls-2{clip-path:url(#clip-path);}.cls-3{fill:#00539b;}.cls-4{stroke:#00539b;stroke-miterlimit:10;stroke-width:0.32px;}</style><clipPath id="clip-path" transform="translate(0.06)"><rect class="cls-1" width="213.45" height="55.45"/></clipPath></defs><g id="Layer_2" data-name="Layer 2"><g id="Layer_1-2" data-name="Layer 1"><g class="cls-2"><rect class="cls-3" x="0.32" width="8.17" height="34.74"/><polyline class="cls-3" points="38.23 34.74 51 34.74 51 0 42.83 0 42.83 27.28 26.68 0 12.99 0 12.99 34.74 21.16 34.74 21.16 6.64 38.23 34.74"/><path class="cls-3" d="M145.14,6.54l5.93,11.55H139.32l5.82-11.55m-30.4,8.17h-14l0-8.17H115c5.92,0,6.32,8.17-.27,8.17M179.47,0h-14.1V29.94L150.45,0H140.24L125.53,29.63l-8.43-8.38C129.82,21.25,130.84,0,115.61,0h-23V34.74h8.18V21.25h5.72l13.54,13.54h11.18l5.21-10.47h17.27l5.42,10.42h14.41V7.87l8.27,26.87H194L201.74,9V34.74h8.17V0H196.53l-8.48,28.2Z" transform="translate(0.06)"/><path class="cls-3" d="M89.56,34.74v-20H69.33v6.54H81.49v6.54h-9.4c-14.21,0-14.21-21.25.51-21.25h17V0H71.68c-24.33,0-24,34.74.82,34.74H89.56" transform="translate(0.06)"/></g><path class="cls-3" d="M7.85,43.33A3.79,3.79,0,0,0,4.79,44.6a5.24,5.24,0,0,0-1.08,3.52q0,4.7,4.14,4.69a14.93,14.93,0,0,0,4.22-.74v2.5a13.57,13.57,0,0,1-4.55.72A7.59,7.59,0,0,1,2,53.43,7.12,7.12,0,0,1,.1,48.1,7.69,7.69,0,0,1,1,44.26a6.19,6.19,0,0,1,2.69-2.52,9.09,9.09,0,0,1,4.12-.88,12.91,12.91,0,0,1,4.84,1l-1.13,2.43c-.62-.25-1.24-.47-1.87-.66a6.58,6.58,0,0,0-1.84-.28" transform="translate(0.06)"/><g class="cls-2"><path class="cls-4" d="M7.85,43.33A3.79,3.79,0,0,0,4.79,44.6a5.24,5.24,0,0,0-1.08,3.52q0,4.7,4.14,4.69a14.93,14.93,0,0,0,4.22-.74v2.5a13.57,13.57,0,0,1-4.55.72A7.59,7.59,0,0,1,2,53.43,7.12,7.12,0,0,1,.1,48.1,7.69,7.69,0,0,1,1,44.26a6.19,6.19,0,0,1,2.69-2.52,9.09,9.09,0,0,1,4.12-.88,12.91,12.91,0,0,1,4.84,1l-1.13,2.43c-.62-.25-1.24-.47-1.87-.66A6.58,6.58,0,0,0,7.85,43.33Z" transform="translate(0.06)"/></g><path class="cls-3" d="M31.38,48.06a7,7,0,0,1-2,5.36,8.35,8.35,0,0,1-5.83,1.87,8.33,8.33,0,0,1-5.83-1.87,6.94,6.94,0,0,1-2-5.38,6.84,6.84,0,0,1,2-5.35,8.38,8.38,0,0,1,5.85-1.85,8.27,8.27,0,0,1,5.82,1.86,6.92,6.92,0,0,1,2,5.36m-12,0a5.2,5.2,0,0,0,1.05,3.54,4,4,0,0,0,3.14,1.19q4.18,0,4.19-4.73c0-3.16-1.39-4.75-4.17-4.75a4,4,0,0,0-3.15,1.2A5.19,5.19,0,0,0,19.33,48.06Z" transform="translate(0.06)"/><g class="cls-2"><path class="cls-4" d="M31.38,48.06a7,7,0,0,1-2,5.36,8.35,8.35,0,0,1-5.83,1.87,8.33,8.33,0,0,1-5.83-1.87,6.94,6.94,0,0,1-2-5.38,6.84,6.84,0,0,1,2-5.35,8.38,8.38,0,0,1,5.85-1.85,8.27,8.27,0,0,1,5.82,1.86A6.92,6.92,0,0,1,31.38,48.06Zm-12,0a5.2,5.2,0,0,0,1.05,3.54,4,4,0,0,0,3.14,1.19q4.18,0,4.19-4.73c0-3.16-1.39-4.75-4.17-4.75a4,4,0,0,0-3.15,1.2A5.19,5.19,0,0,0,19.33,48.06Z" transform="translate(0.06)"/></g><path class="cls-3" d="M49.8,55.1H45.35L38.16,44.48h-.1c.14,1.87.22,3.21.22,4V55.1H35.15v-14h4.41l7.18,10.51h.08c-.12-1.82-.17-3.11-.17-3.87V41.06H49.8v14" transform="translate(0.06)"/><g class="cls-2"><path class="cls-4" d="M49.8,55.1H45.35L38.16,44.48h-.1c.14,1.87.22,3.21.22,4V55.1H35.15v-14h4.41l7.18,10.51h.08c-.12-1.82-.17-3.11-.17-3.87V41.06H49.8Z" transform="translate(0.06)"/></g><polyline class="cls-3" points="61.66 55.1 58.16 55.1 58.16 43.54 53.67 43.54 53.67 41.06 66.14 41.06 66.14 43.54 61.66 43.54 61.66 55.1"/><g class="cls-2"><polygon class="cls-4" points="61.66 55.1 58.16 55.1 58.16 43.54 53.67 43.54 53.67 41.06 66.14 41.06 66.14 43.54 61.66 43.54 61.66 55.1"/></g><polyline class="cls-3" points="80.39 55.1 70.88 55.1 70.88 41.06 80.39 41.06 80.39 43.5 74.38 43.5 74.38 46.58 79.98 46.58 79.98 49.02 74.38 49.02 74.38 52.64 80.39 52.64 80.39 55.1"/><g class="cls-2"><polygon class="cls-4" points="80.39 55.1 70.88 55.1 70.88 41.06 80.39 41.06 80.39 43.5 74.38 43.5 74.38 46.58 79.98 46.58 79.98 49.02 74.38 49.02 74.38 52.64 80.39 52.64 80.39 55.1"/></g><path class="cls-3" d="M99.7,55.1H95.25L88.07,44.48H88c.14,1.87.21,3.21.21,4V55.1H85.05v-14h4.42l7.17,10.51h.08c-.11-1.82-.17-3.11-.17-3.87V41.06H99.7v14" transform="translate(0.06)"/><g class="cls-2"><path class="cls-4" d="M99.7,55.1H95.25L88.07,44.48H88c.14,1.87.21,3.21.21,4V55.1H85.05v-14h4.42l7.17,10.51h.08c-.11-1.82-.17-3.11-.17-3.87V41.06H99.7Z" transform="translate(0.06)"/></g><polyline class="cls-3" points="112.02 55.1 108.52 55.1 108.52 43.54 104.04 43.54 104.04 41.06 116.51 41.06 116.51 43.54 112.02 43.54 112.02 55.1"/><g class="cls-2"><polygon class="cls-4" points="112.02 55.1 108.52 55.1 108.52 43.54 104.04 43.54 104.04 41.06 116.51 41.06 116.51 43.54 112.02 43.54 112.02 55.1"/></g><path class="cls-3" d="M133.82,47.21h6.55v7.28a20.58,20.58,0,0,1-3,.62,22.72,22.72,0,0,1-2.88.18,8,8,0,0,1-5.71-1.87,7,7,0,0,1-2-5.36,6.53,6.53,0,0,1,2.29-5.3,9.61,9.61,0,0,1,6.34-1.9,14.34,14.34,0,0,1,4.91.86l-1.17,2.38a9.55,9.55,0,0,0-3.76-.77,5.1,5.1,0,0,0-3.64,1.3,4.58,4.58,0,0,0-1.36,3.49,5,5,0,0,0,1.1,3.49,4.12,4.12,0,0,0,3.2,1.2,13,13,0,0,0,2.22-.19V49.69h-3.12V47.21" transform="translate(0.06)"/><g class="cls-2"><path class="cls-4" d="M133.82,47.21h6.55v7.28a20.58,20.58,0,0,1-3,.62,22.72,22.72,0,0,1-2.88.18,8,8,0,0,1-5.71-1.87,7,7,0,0,1-2-5.36,6.53,6.53,0,0,1,2.29-5.3,9.61,9.61,0,0,1,6.34-1.9,14.34,14.34,0,0,1,4.91.86l-1.17,2.38a9.55,9.55,0,0,0-3.76-.77,5.1,5.1,0,0,0-3.64,1.3,4.58,4.58,0,0,0-1.36,3.49,5,5,0,0,0,1.1,3.49,4.12,4.12,0,0,0,3.2,1.2,13,13,0,0,0,2.22-.19V49.69h-3.12Z" transform="translate(0.06)"/></g><path class="cls-3" d="M149.07,49.71V55.1h-3.5v-14h4.81a9.38,9.38,0,0,1,5,1A3.51,3.51,0,0,1,157,45.26a3.4,3.4,0,0,1-.8,2.21A5.27,5.27,0,0,1,153.91,49c2.48,3.16,4.1,5.19,4.86,6.12h-3.89l-3.94-5.39h-1.87m0-2.42h1.13a5,5,0,0,0,2.45-.47,1.6,1.6,0,0,0,.8-1.48,1.49,1.49,0,0,0-.81-1.42,5.71,5.71,0,0,0-2.51-.42h-1.06Z" transform="translate(0.06)"/><g class="cls-2"><path class="cls-4" d="M149.07,49.71V55.1h-3.5v-14h4.81a9.38,9.38,0,0,1,5,1A3.51,3.51,0,0,1,157,45.26a3.4,3.4,0,0,1-.8,2.21A5.27,5.27,0,0,1,153.91,49c2.48,3.16,4.1,5.19,4.86,6.12h-3.89l-3.94-5.39Zm0-2.42h1.13a5,5,0,0,0,2.45-.47,1.6,1.6,0,0,0,.8-1.48,1.49,1.49,0,0,0-.81-1.42,5.71,5.71,0,0,0-2.51-.42h-1.06Z" transform="translate(0.06)"/></g><path class="cls-3" d="M176.18,48.06a7,7,0,0,1-2,5.36,10,10,0,0,1-11.66,0,6.94,6.94,0,0,1-2-5.38,6.84,6.84,0,0,1,2-5.35,8.38,8.38,0,0,1,5.85-1.85,8.27,8.27,0,0,1,5.82,1.86,6.92,6.92,0,0,1,2,5.36m-12.05,0a5.2,5.2,0,0,0,1.05,3.54,4,4,0,0,0,3.14,1.19q4.19,0,4.19-4.73c0-3.16-1.39-4.75-4.17-4.75a4,4,0,0,0-3.15,1.2A5.19,5.19,0,0,0,164.13,48.06Z" transform="translate(0.06)"/><g class="cls-2"><path class="cls-4" d="M176.18,48.06a7,7,0,0,1-2,5.36,10,10,0,0,1-11.66,0,6.94,6.94,0,0,1-2-5.38,6.84,6.84,0,0,1,2-5.35,8.38,8.38,0,0,1,5.85-1.85,8.27,8.27,0,0,1,5.82,1.86A6.92,6.92,0,0,1,176.18,48.06Zm-12.05,0a5.2,5.2,0,0,0,1.05,3.54,4,4,0,0,0,3.14,1.19q4.19,0,4.19-4.73c0-3.16-1.39-4.75-4.17-4.75a4,4,0,0,0-3.15,1.2A5.19,5.19,0,0,0,164.13,48.06Z" transform="translate(0.06)"/></g><path class="cls-3" d="M193.39,41.06v9.08a4.61,4.61,0,0,1-.82,2.73,5.05,5.05,0,0,1-2.36,1.79,9.74,9.74,0,0,1-3.66.63,7.78,7.78,0,0,1-5-1.39,4.55,4.55,0,0,1-1.76-3.8v-9h3.49v8.59a3.22,3.22,0,0,0,.76,2.38,3.53,3.53,0,0,0,2.55.76,3.45,3.45,0,0,0,2.49-.76,3.28,3.28,0,0,0,.77-2.4V41.06h3.49" transform="translate(0.06)"/><g class="cls-2"><path class="cls-4" d="M193.39,41.06v9.08a4.61,4.61,0,0,1-.82,2.73,5.05,5.05,0,0,1-2.36,1.79,9.74,9.74,0,0,1-3.66.63,7.78,7.78,0,0,1-5-1.39,4.55,4.55,0,0,1-1.76-3.8v-9h3.49v8.59a3.22,3.22,0,0,0,.76,2.38,3.53,3.53,0,0,0,2.55.76,3.45,3.45,0,0,0,2.49-.76,3.28,3.28,0,0,0,.77-2.4V41.06Z" transform="translate(0.06)"/></g><path class="cls-3" d="M209.65,45.44A4,4,0,0,1,208,48.9a8,8,0,0,1-4.74,1.2h-1.5v5h-3.5v-14h5.27a7.87,7.87,0,0,1,4.57,1.1,3.74,3.74,0,0,1,1.56,3.28m-7.9,2.22h1.15a4.38,4.38,0,0,0,2.42-.54,2,2,0,0,0,.13-3.12,3.51,3.51,0,0,0-2.11-.5h-1.59Z" transform="translate(0.06)"/><g class="cls-2"><path class="cls-4" d="M209.65,45.44A4,4,0,0,1,208,48.9a8,8,0,0,1-4.74,1.2h-1.5v5h-3.5v-14h5.27a7.87,7.87,0,0,1,4.57,1.1A3.74,3.74,0,0,1,209.65,45.44Zm-7.9,2.22h1.15a4.38,4.38,0,0,0,2.42-.54,2,2,0,0,0,.13-3.12,3.51,3.51,0,0,0-2.11-.5h-1.59Z" transform="translate(0.06)"/></g></g></g></svg>